<svg width="25" height="19" viewBox="0 0 25 19" fill="none" xmlns="http://www.w3.org/2000/svg">
<path d="M21.1803 1.58591C19.5359 0.835505 17.8062 0.293974 16.0222 0C15.7972 0.394544 15.5413 0.928339 15.3629 1.35383C13.4702 1.07533 11.5389 1.07533 9.64625 1.35383C9.44458 0.889658 9.21964 0.440961 8.97143 0C7.18741 0.30171 5.44993 0.835505 3.80553 1.59365C0.54776 6.43648 -0.336508 11.1633 0.105618 15.8127C2.01374 17.2284 4.15456 18.3037 6.435 19C6.94694 18.3037 7.40458 17.5765 7.79241 16.8029C7.05553 16.5244 6.34193 16.184 5.65935 15.7895C5.83775 15.658 6.00839 15.5187 6.17128 15.3872C10.1814 17.2748 14.8277 17.2748 18.8301 15.3872C19.0007 15.5265 19.1791 15.6657 19.3497 15.7895C18.6672 16.1918 17.9536 16.5322 17.2089 16.8107C17.5968 17.5765 18.0544 18.3115 18.5663 19C20.8468 18.3115 22.9876 17.2362 24.8957 15.8127C25.4077 10.4206 24.0037 5.73249 21.1725 1.58591H21.1803ZM8.34312 12.9581C7.10982 12.9581 6.09371 11.8286 6.09371 10.4438C6.09371 9.05904 7.08655 7.92182 8.34312 7.92182C9.59969 7.92182 10.6003 9.0513 10.5926 10.4361C10.5848 11.8208 9.59969 12.9581 8.34312 12.9581ZM16.6505 12.9581C15.4172 12.9581 14.401 11.8286 14.401 10.4438C14.401 9.05904 15.3939 7.92182 16.6505 7.92182C17.907 7.92182 18.9076 9.0513 18.8999 10.4361C18.8921 11.8208 17.907 12.9581 16.6505 12.9581Z" fill="#A1ACC3"/>
</svg>
