<svg width="24" height="18" viewBox="0 0 24 18" fill="none" xmlns="http://www.w3.org/2000/svg">
<path d="M23.2024 2.15222C23.2024 2.15222 23.1444 2.23226 23.1096 2.27799L15.4271 10.8647C14.6031 11.7908 13.4194 12.3168 12.1661 12.3168C10.9244 12.3168 9.72905 11.7908 8.9051 10.8647L1.12979 2.16366C0.990528 2.4838 0.920898 2.82681 0.920898 3.19269V13.0371C0.920898 15.5754 3.00979 17.6449 5.59769 17.6449H18.7577C21.334 17.6449 23.4345 15.5868 23.4345 13.0371V3.19269C23.4345 2.82681 23.3533 2.47236 23.214 2.15222H23.2024Z" fill="#A1ACC3"/>
<path d="M10.6574 9.33241C11.0404 9.76689 11.5742 10.007 12.166 10.007C12.7579 10.007 13.2917 9.76689 13.6747 9.33241L21.3572 0.745724C21.3572 0.745724 21.4152 0.688555 21.45 0.665688C21.2295 0.60852 20.9974 0.574219 20.7653 0.574219H3.56677C3.33467 0.574219 3.11418 0.60852 2.89368 0.665688L10.6574 9.34385V9.33241Z" fill="#A1ACC3"/>
</svg>
