<svg width="24" height="19" viewBox="0 0 24 19" fill="none" xmlns="http://www.w3.org/2000/svg">
<path d="M1.48049 8.27471C1.48049 8.27471 12.0956 4.10697 15.7697 2.6387C17.1835 2.04987 21.9679 0.168647 21.9679 0.168647C21.9679 0.168647 24.1723 -0.657254 23.9886 1.34632C23.9247 2.17222 23.4375 5.04758 22.9423 8.16C22.2075 12.5648 21.4088 17.3826 21.4088 17.3826C21.4088 17.3826 21.2889 18.7361 20.2426 18.9655C19.1963 19.2026 17.479 18.1473 17.1755 17.9102C16.9279 17.7343 12.5748 15.0884 10.9774 13.796C10.5461 13.4442 10.0588 12.7407 11.0413 11.9148C13.2458 9.98005 15.8895 7.57117 17.479 6.04172C18.2138 5.33818 18.9487 3.69402 15.8816 5.68995C11.5285 8.56531 7.23134 11.2724 7.23134 11.2724C7.23134 11.2724 6.24891 11.8613 4.41183 11.3336C2.57476 10.8059 0.426162 10.1024 0.426162 10.1024C0.426162 10.1024 -1.0435 9.22297 1.47249 8.28236L1.48049 8.27471Z" fill="#A1ACC3"/>
</svg>
