<svg width="16" height="16" viewBox="0 0 16 16" fill="none" xmlns="http://www.w3.org/2000/svg">
<g clip-path="url(#clip0_1_581)">
<path d="M11.2253 15.9878C11.0936 15.8073 10.958 15.6277 10.8292 15.4452C10.4502 14.9073 10.0731 14.3675 9.69511 13.8287C9.4135 13.4283 9.13285 13.027 8.85125 12.6266C8.52668 12.1663 8.19926 11.707 7.87565 11.2457C7.54249 10.7724 7.2122 10.2981 6.88 9.82471C6.87809 9.82097 6.87237 9.82003 6.87046 9.8191C6.64517 10.0764 6.4218 10.3346 6.19556 10.5909C5.75358 11.0942 5.30969 11.5956 4.86771 12.0989C4.35414 12.6827 3.83961 13.2674 3.32604 13.8521C2.98429 14.2412 2.6435 14.6314 2.30176 15.0215C2.02397 15.3377 1.74618 15.6539 1.46648 15.9691C1.45217 15.986 1.42353 15.9991 1.40062 15.9991C0.940502 16.0009 0.479432 16 0.0193161 16C0.0269529 15.9429 1.5734 14.1767 2.07456 13.6201C2.77619 12.8408 3.46064 12.0475 4.15368 11.2607C4.84671 10.473 5.5407 9.68532 6.2347 8.89856C5.99032 8.55242 5.74594 8.20815 5.50348 7.86201C5.21423 7.44852 4.92785 7.03315 4.63766 6.61966C4.30164 6.14068 3.95989 5.66544 3.62387 5.18739C2.80865 4.02736 1.99533 2.86546 1.17915 1.70543C0.855543 1.2461 0.529071 0.788634 0.204508 0.330234C0.139595 0.238555 0.076592 0.145939 0.012634 0.053324C-0.0121856 0.0177747 0.0021334 0.00467754 0.0412719 0.00467754C0.125276 0.00374203 0.209281 0.000935508 0.293285 0.000935508C1.76814 0 3.24299 0.000935508 4.7188 0C4.76557 0 4.78848 0.0159036 4.81521 0.0542595C5.00327 0.326492 5.19514 0.594983 5.38511 0.865345C6.02373 1.77372 6.66236 2.68304 7.30098 3.59235C7.7401 4.21727 8.17826 4.84219 8.61642 5.46618C8.70901 5.59902 8.80447 5.72999 8.89993 5.8647C9.03644 5.71034 9.16722 5.5616 9.298 5.41379C9.58533 5.0873 9.87266 4.7608 10.159 4.43337C10.5638 3.97123 10.9666 3.50816 11.3723 3.04695C12.1437 2.17132 12.9169 1.29755 13.6901 0.42285C13.7999 0.298427 13.9077 0.173069 14.0194 0.0495819C14.0376 0.0290008 14.07 0.0102906 14.0968 0.00935508C14.47 0.00748407 14.8442 0.00935508 15.2175 0.0102906C15.3005 0.0102906 15.3845 0.0102906 15.4847 0.0102906C15.4666 0.0411624 15.459 0.0617436 15.4456 0.0767117C15.1315 0.431269 14.8146 0.783021 14.5025 1.13851C14.0586 1.64275 13.6185 2.15073 13.1756 2.65591C12.8567 3.01889 12.536 3.37999 12.2162 3.74203C11.7885 4.22569 11.3599 4.70935 10.9342 5.19488C10.6192 5.55411 10.307 5.91709 9.99294 6.27726C9.8593 6.43069 9.72375 6.58317 9.58629 6.73379C9.54906 6.77402 9.53951 6.79086 9.58342 6.84231C9.67984 6.95551 9.75716 7.08273 9.84307 7.20435C10.6478 8.34941 11.4525 9.49354 12.2563 10.6386C12.5503 11.0568 12.8396 11.4778 13.1336 11.8959C13.3942 12.2664 13.6567 12.6359 13.9173 13.0054C14.4165 13.7146 14.9158 14.4237 15.4151 15.1328C15.5974 15.3929 15.7797 15.6539 15.9611 15.9139C15.9764 15.9355 15.9859 15.9616 16.0021 15.9935C15.9773 15.9953 15.9639 15.9972 15.9506 15.9972C14.406 15.9963 12.8606 15.9953 11.316 15.9935C11.2922 15.9935 11.2683 15.9916 11.2444 15.9906C11.2387 15.9888 11.233 15.9869 11.2263 15.985L11.2253 15.9878ZM14.0261 14.9962C14.028 14.9897 14.0309 14.9831 14.0328 14.9756C14.0051 14.9447 13.9746 14.9157 13.9507 14.8821C13.6519 14.4611 13.355 14.0392 13.0553 13.6191C12.3823 12.6761 11.7084 11.7341 11.0354 10.792C10.6745 10.2869 10.3146 9.78168 9.9538 9.27744C9.34382 8.42519 8.73192 7.57388 8.12289 6.72163C7.51481 5.87219 6.90864 5.02087 6.30152 4.1705C5.91109 3.62416 5.5197 3.07782 5.12927 2.53055C4.79707 2.0656 4.46487 1.60065 4.13267 1.13664C4.10499 1.09829 4.08017 1.06648 4.02003 1.06742C3.35563 1.07022 2.69123 1.06929 2.02683 1.06929C2.00965 1.06929 1.99151 1.07209 1.96383 1.0749C1.99151 1.11045 2.01347 1.13758 2.03352 1.16564C2.27026 1.49775 2.50509 1.83173 2.74183 2.16383C3.32986 2.98801 3.91884 3.81126 4.50783 4.63451C4.93072 5.22575 5.35456 5.81512 5.77649 6.40636C6.29865 7.13699 6.82082 7.86763 7.34298 8.59826C8.12862 9.69748 8.9152 10.7967 9.70179 11.8959C9.94044 12.2299 10.1781 12.5639 10.4168 12.8979C10.9008 13.5761 11.3857 14.2543 11.8678 14.9335C11.9012 14.9803 11.9394 14.9971 11.9928 14.9971C12.6715 14.9971 13.3503 14.9971 14.028 14.9971L14.0261 14.9962Z" fill="#A1ACC3"/>
</g>
<defs>
<clipPath id="clip0_1_581">
<rect width="16" height="16" fill="white"/>
</clipPath>
</defs>
</svg>
